<svg xmlns="http://www.w3.org/2000/svg" viewBox="0 0 256 256" style="enable-background:new 0 0 256 256" xml:space="preserve"><style>.st2{fill:#dae6f1}.st5{fill:#f5c84c}.st8{fill:#edf4fc}</style><g id="Layer_17"><path class="st8" d="M203.047 205.549H20.088c-2.302 0-3.95 2.207-3.324 4.422l.063.222c2.883 10.146 12.23 17.092 22.778 17.092H183.53c10.548 0 19.894-6.947 22.778-17.092l.063-.222c.626-2.215-1.023-4.422-3.324-4.422z"/><path class="st2" d="M41.477 227.285c1.229 7.23 7.545 12.786 15.111 12.786h109.96c7.566 0 13.882-5.556 15.111-12.786H41.477z"/><path class="st8" d="M252.415 121.578c-4.678-19.79-23.391-33.333-44.472-32.204l-1.739.093a169.846 169.846 0 0 1-1.114 15.427l3.741-.201c13.276-.714 25.063 7.819 28.008 20.282 3.685 15.591-7.948 30.701-24.503 31.808a91.57 91.57 0 0 0-24.758 5.131 159.284 159.284 0 0 1-17.593 26.775c15.18-10.659 28.25-15.584 43.458-16.601 26.347-1.76 44.82-25.763 38.972-50.51z"/><path class="st2" d="M195.062 73.043H28.072c-6.12 0-11.198 5.245-11.205 11.783v.12c0 32.477 9.166 62.657 24.871 87.777 2.842-1.837 6.112-2.886 9.594-2.886 6.759 0 12.724 3.945 16.295 9.962 3.571-6.015 9.531-9.962 16.289-9.962 10.932 0 19.794 10.312 19.794 23.033 0 4.686-1.206 9.043-3.271 12.68h50.47a19.73 19.73 0 0 0 8.36-4.973c28.914-28.889 46.997-69.997 46.997-115.63v-.12c-.006-6.54-5.084-11.784-11.204-11.784z"/><path d="M83.917 169.836c-6.76 0-12.721 3.949-16.292 9.967 2.204 3.714 3.502 8.212 3.502 13.066 0 4.691-1.22 9.041-3.29 12.68h32.603c2.066-3.637 3.271-7.994 3.271-12.68 0-12.721-8.862-23.033-19.794-23.033z" style="fill:#5b5d60"/><path d="M51.333 169.836c-10.932 0-19.794 10.312-19.794 23.033 0 4.686 1.206 9.043 3.271 12.68h33.045c2.066-3.637 3.271-7.994 3.271-12.68.001-12.721-8.862-23.033-19.793-23.033z" style="fill:#818182"/><path d="M195.062 73.043H28.072c-6.12 0-11.198 5.245-11.205 11.783v.12c0 4.011.148 7.986.422 11.922h188.555c.275-3.936.422-7.91.422-11.922v-.12c-.006-6.539-5.084-11.783-11.204-11.783z" style="fill:#fca265"/><path class="st5" d="M205.983 42.697c-4.498-.838-8.043-4.31-8.898-8.716a.2.2 0 0 0-.395 0c-.855 4.406-4.4 7.879-8.898 8.716a.195.195 0 0 0 0 .387c4.498.838 8.043 4.31 8.898 8.717a.2.2 0 0 0 .395 0c.855-4.406 4.4-7.879 8.898-8.717a.195.195 0 0 0 0-.387z"/><path d="M218.711 190.332c-3.206-.597-5.733-3.073-6.343-6.214-.031-.158-.251-.158-.281 0-.61 3.141-3.136 5.617-6.343 6.214a.14.14 0 0 0 0 .276c3.206.597 5.733 3.073 6.343 6.214.031.158.251.158.281 0 .609-3.141 3.136-5.617 6.343-6.214a.14.14 0 0 0 0-.276z" style="fill:#b2e26d"/><path d="M21.694 160.302h-2.329v-2.33a3.156 3.156 0 1 0-6.314 0v2.33h-2.33a3.156 3.156 0 1 0 0 6.314h2.33v2.33a3.156 3.156 0 1 0 6.314 0v-2.33h2.329a3.156 3.156 0 1 0 0-6.314z" style="fill:#70d6f9"/><path d="M214.999 56.06a3.377 3.377 0 1 0 0 6.754 3.377 3.377 0 0 0 0-6.754z" style="fill:#fc657e"/><path class="st5" d="M3.377 136.06a3.377 3.377 0 1 0 0 6.754 3.377 3.377 0 0 0 0-6.754z"/><path d="M113.692 31.861c-2.724-2.725-3.547-5.771-2.514-9.315.831-2.852 2.595-4.932 2.634-4.978a2.5 2.5 0 0 0-3.768-3.286c-3.39 3.874-7.728 13.272.114 21.114 2.725 2.725 3.547 5.772 2.514 9.315-.836 2.87-2.616 4.958-2.628 4.971a2.5 2.5 0 0 0 3.763 3.293c3.388-3.873 7.727-13.272-.115-21.114zM138.895 31.861c-2.725-2.725-3.547-5.771-2.514-9.315.831-2.851 2.593-4.931 2.634-4.978a2.5 2.5 0 0 0-3.769-3.286c-3.39 3.875-7.729 13.273.114 21.114 2.725 2.725 3.547 5.772 2.514 9.315-.836 2.87-2.616 4.958-2.628 4.971a2.5 2.5 0 0 0 3.763 3.293c3.389-3.873 7.728-13.272-.114-21.114zM164.097 31.861c-2.725-2.725-3.547-5.771-2.514-9.315.831-2.851 2.593-4.931 2.634-4.978a2.5 2.5 0 0 0-3.769-3.286c-3.39 3.875-7.729 13.273.114 21.114 2.725 2.725 3.547 5.772 2.514 9.315-.836 2.87-2.616 4.958-2.628 4.971a2.5 2.5 0 0 0 3.763 3.293c3.389-3.873 7.728-13.272-.114-21.114zM88.49 31.861c-2.725-2.725-3.547-5.771-2.514-9.315.831-2.851 2.593-4.931 2.634-4.978a2.5 2.5 0 0 0-3.769-3.286c-3.39 3.875-7.729 13.273.114 21.114 2.725 2.725 3.547 5.772 2.514 9.315-.836 2.87-2.616 4.958-2.628 4.971a2.5 2.5 0 0 0 3.763 3.293c3.389-3.873 7.728-13.272-.114-21.114zM63.288 31.861c-2.725-2.725-3.547-5.771-2.514-9.315.831-2.851 2.593-4.931 2.634-4.978a2.5 2.5 0 0 0-3.769-3.286c-3.39 3.875-7.729 13.273.114 21.114 2.724 2.725 3.547 5.772 2.514 9.315-.836 2.87-2.616 4.958-2.628 4.972a2.5 2.5 0 1 0 3.762 3.292c3.39-3.873 7.728-13.272-.113-21.114zM207.792 205.41a5.905 5.905 0 0 0-4.746-2.361H20.088c-1.88 0-3.61.86-4.745 2.36a5.942 5.942 0 0 0-.983 5.247l.063.221c3.164 11.133 13.52 18.909 25.183 18.909H183.53c11.663 0 22.018-7.775 25.182-18.908l.064-.226a5.938 5.938 0 0 0-.984-5.242zm-3.826 3.877-.063.223c-2.556 8.994-10.934 15.276-20.373 15.276H39.604c-9.439 0-17.817-6.282-20.374-15.277l-.062-.217a.968.968 0 0 1 .161-.865.934.934 0 0 1 .758-.377h182.958c.411 0 .651.236.758.377.112.145.279.45.163.86z"/><path d="M182.058 225.499a2.499 2.499 0 0 0-2.971 1.917c-1.269 5.885-6.542 10.156-12.541 10.156H56.587c-5.985 0-11.257-4.261-12.535-10.131a2.5 2.5 0 1 0-4.886 1.064c1.774 8.151 9.101 14.067 17.42 14.067h109.959c8.337 0 15.667-5.931 17.428-14.102a2.497 2.497 0 0 0-1.915-2.971zM239.273 124.399c-3.225-13.645-16.09-22.981-30.575-22.203l-2.829.151a2.5 2.5 0 1 0 .267 4.993l2.83-.151c12.083-.667 22.772 7.072 25.44 18.36 1.541 6.519.113 13.389-3.917 18.847-4.278 5.793-10.955 9.399-18.32 9.891a93.393 93.393 0 0 0-24.733 5.026 2.5 2.5 0 0 0 1.64 4.724 88.455 88.455 0 0 1 23.427-4.761c8.834-.591 16.857-4.932 22.009-11.911 4.905-6.642 6.641-15.012 4.761-22.966z"/><path d="M254.848 121.002c-4.956-20.967-24.735-35.321-47.038-34.125l-.822.044a2.5 2.5 0 0 0-2.363 2.63 2.494 2.494 0 0 0 2.63 2.363l.823-.044c19.876-1.072 37.505 11.671 41.905 30.282 2.544 10.767.187 22.11-6.467 31.122-7.058 9.559-18.079 15.507-30.236 16.319-15.766 1.054-29.068 6.101-44.48 16.875a2.5 2.5 0 0 0 2.866 4.097c14.611-10.215 27.157-14.996 41.948-15.984 13.627-.911 25.992-7.595 33.925-18.338 7.527-10.196 10.192-23.04 7.309-35.241z"/><path d="M195.062 70.543H28.072c-7.549 0-13.697 6.406-13.705 14.283v.121c0 31.429 8.51 61.882 24.609 88.066a2.5 2.5 0 1 0 4.259-2.619c-15.615-25.396-23.869-54.943-23.869-85.447v-.118c.005-5.12 3.91-9.285 8.705-9.285h166.99c4.795 0 8.7 4.165 8.705 9.283v.121c0 42.984-16.863 84.485-46.264 113.861a17.299 17.299 0 0 1-7.301 4.344 2.5 2.5 0 0 0 1.416 4.795 22.314 22.314 0 0 0 9.418-5.602c30.333-30.307 47.73-73.097 47.73-117.398v-.123c-.005-7.876-6.153-14.282-13.703-14.282z"/><path d="M83.917 167.336c-7.1 0-13.838 3.928-18.022 10.507a2.5 2.5 0 1 0 4.219 2.683c3.311-5.206 8.342-8.191 13.804-8.191 9.536 0 17.294 9.211 17.294 20.533 0 3.814-.892 7.54-2.58 10.774a2.5 2.5 0 1 0 4.433 2.313c2.059-3.946 3.147-8.472 3.147-13.087-.001-14.078-10.002-25.532-22.295-25.532z"/><path d="M51.333 167.336c-12.293 0-22.294 11.454-22.294 25.533 0 4.657 1.106 9.217 3.2 13.188a2.497 2.497 0 0 0 3.377 1.045 2.5 2.5 0 0 0 1.045-3.377c-1.716-3.255-2.623-7.009-2.623-10.856 0-11.322 7.758-20.533 17.294-20.533s17.294 9.211 17.294 20.533c0 3.847-.907 7.601-2.622 10.855a2.5 2.5 0 1 0 4.422 2.332c2.093-3.971 3.199-8.53 3.199-13.187.001-14.078-10-25.533-22.292-25.533z"/><path d="M53.163 190.121c-8.332-8.95-.338-17.873.006-18.249a2.499 2.499 0 0 0-3.665-3.4c-4.034 4.333-9.225 15.146 0 25.056 2.997 3.219 4.234 6.928 3.677 11.023a2.5 2.5 0 1 0 4.954.673c.757-5.572-.962-10.795-4.972-15.103zM85.747 190.121c-8.326-8.944-.35-17.86.006-18.248a2.5 2.5 0 0 0-3.665-3.401c-4.034 4.333-9.226 15.146 0 25.056 2.997 3.219 4.234 6.928 3.677 11.024a2.5 2.5 0 1 0 4.954.673c.758-5.572-.961-10.795-4.972-15.104zM204.958 94.368H18.083a2.5 2.5 0 1 0 0 5h186.875a2.5 2.5 0 1 0 0-5z"/></g></svg>