<svg xmlns="http://www.w3.org/2000/svg" viewBox="0 0 300 300" xml:space="preserve"><path fill="#AA6148" d="M116.074 66.108c3.056-1.38 6.062-3.432 8.752-6.122 8.74-8.736 10.81-20.823 4.636-27-6.177-6.174-18.262-4.1-26.997 4.636-7.955 7.95-10.358 18.666-6.077 25.185 3.216.689 10.388 2.113 19.686 3.301z"/><path fill="#AA6148" d="M159.689 67.286c2.731-4.02 4.42-9.47 4.42-15.484.006-12.358-7.081-22.367-15.812-22.37-8.734.003-15.815 10.014-15.815 22.369 0 6.32 1.86 12.016 4.842 16.083 7.27.263 14.885.152 22.365-.598z"/><path fill="#AA6148" d="M172.453 65.278c2.708-.597 5.362-1.292 7.922-2.129 6.951-2.274 13.364-4.082 19.252-5.48.009-4.152-1.048-8.7-3.287-13.075-5.628-11.002-16.497-16.681-24.271-12.704-7.771 3.983-9.511 16.121-3.88 27.118a30.663 30.663 0 0 0 4.264 6.27z"/><path fill="#FFDA88" d="M94.51 62.391s51.076 12.136 85.865.759c50.565-16.535 73.62-9.326 60.058 12.831-13.562 22.159-44.471 22.713-29.557 53.452 14.92 30.741 81.566 132.594-62.586 142.172 0 0-162.234 5.777-57.153-145.295 10.423-14.982 3.697-14.269-12.059-33.672C63.326 73.237 68.234 50.683 94.51 62.391z"/><path fill="#FFE2A9" d="M200.23 63.15c13.119-4.291 24.366-6.969 33.623-8.216-10.485-2.284-28.659.1-53.477 8.216-8.232 2.693-17.377 4.057-26.542 4.589 15.105.786 32.119.079 46.396-4.589zM110.992 126.31c10.423-14.982 3.697-14.269-12.059-33.672C89.24 80.701 87.382 67.579 93.5 61.971 68.125 51.299 63.533 73.493 79.079 92.638c15.756 19.402 22.482 18.689 12.059 33.672-105.082 151.072 57.153 145.295 57.153 145.295 1.964-.13 3.871-.285 5.755-.451-37.042-2.834-128.577-21.894-43.054-144.844z"/><path fill="#AA6148" d="M170.688 204.392c-17.492 17.493-41.704 21.648-54.073 9.282-12.357-12.37-8.211-36.58 9.289-54.072 17.495-17.495 41.696-21.65 54.067-9.283 12.366 12.368 8.22 36.578-9.283 54.073z"/><path fill="#BC715C" d="M133.843 167.539c15.573-15.577 36.449-20.542 49.57-12.725-.962-1.618-2.085-3.139-3.443-4.495-12.366-12.366-36.572-8.212-54.064 9.283-17.504 17.492-21.649 41.701-9.289 54.072 1.358 1.357 2.876 2.48 4.494 3.443-7.813-13.128-2.852-34.004 12.732-49.578z"/><path fill="#BC715C" d="M121.849 214.782c-.762 0-1.527-.009-2.297-.024a4.536 4.536 0 1 1 .165-9.069c12.915.23 23.105.421 25.913-25.429 3.614-33.246 31.591-30.822 31.874-30.794a4.54 4.54 0 0 1 4.06 4.968c-.251 2.485-2.474 4.326-4.943 4.06-2.002-.167-19.394-.988-21.974 22.746-3.261 30.021-17.172 33.542-32.798 33.542zM180.337 55.468c4.524 2.273 4.488 3.438 2.941 6.759a257.862 257.862 0 0 1 9.986-2.942c.089-3.93-1.754-8.353-8.852-11.922-7.63-3.834-6.431-8.389-5.873-9.713a4.535 4.535 0 0 0-8.22-3.831c-2.206 4.637-2.95 15.129 10.018 21.649zM145.542 66.331c-.526.478-.874 1.062-1.122 1.68 3.635-.003 7.311-.115 10.978-.368 1.969-4.616 2.238-11.113-3.183-18.438-5.185-7.008-1.908-10.68-.759-11.65a4.538 4.538 0 0 0 .738-6.323 4.531 4.531 0 0 0-6.363-.793c-4.125 3.208-9.62 12.388-.91 24.161 5.177 6.996 1.427 11 .621 11.731z"/><g><path fill="#BC715C" d="M110.927 65.399a10.842 10.842 0 0 0 3.157-1.924c3.091-2.708 4.736-7.113 5.176-13.864.207-3.193 1.078-5.452 2.586-6.713 1.881-1.569 4.462-1.337 4.603-1.318a4.536 4.536 0 0 0 1.237-8.987c-.661-.093-6.543-.806-11.498 3.214-3.588 2.91-5.601 7.357-5.982 13.216-.36 5.539-1.585 7.178-2.096 7.625-.963.841-3.313.682-5.808.509l-1.025-.068c-2.551-.139-4.654 1.745-4.81 4.245a4.502 4.502 0 0 0 .183 1.528c2.679.57 7.731 1.567 14.277 2.537z"/></g><g><path fill="#161616" d="M116.072 70.644c-.192 0-.384-.012-.574-.037-9.407-1.202-16.608-2.625-20.062-3.365a4.538 4.538 0 0 1-2.841-1.946c-5.564-8.474-2.764-21.462 6.661-30.883 10.665-10.665 25.34-12.703 33.41-4.636 3.999 4.001 5.653 10.02 4.538 16.516-1.032 6.016-4.29 12.018-9.174 16.9-3.013 3.013-6.409 5.384-10.091 7.048a4.512 4.512 0 0 1-1.867.403zM99.413 58.803c3.301.663 8.942 1.705 15.902 2.632 2.248-1.168 4.407-2.762 6.303-4.656 3.517-3.517 5.939-7.897 6.647-12.019.359-2.089.574-5.981-2.012-8.567-4.32-4.32-13.749-2.198-20.582 4.636-5.58 5.576-8.09 13.077-6.258 17.974z"/><path fill="#161616" d="M144.281 72.548c-2.33 0-4.705-.044-7.122-.131a4.532 4.532 0 0 1-3.493-1.851c-3.689-5.03-5.721-11.694-5.721-18.765 0-15.083 8.938-26.899 20.347-26.904 5.659.002 11.083 3.089 14.889 8.468 3.525 4.986 5.465 11.533 5.463 18.438 0 6.691-1.848 13.095-5.209 18.034a4.538 4.538 0 0 1-3.298 1.962c-4.966.498-10.278.749-15.856.749zm15.405-5.262h.03-.03zm-19.844-3.863c6.056.146 11.806-.004 17.148-.444 1.674-3.183 2.584-7.075 2.584-11.176.003-4.974-1.382-9.784-3.797-13.199-1.225-1.73-3.824-4.634-7.484-4.636-6.111.002-11.276 8.169-11.276 17.833-.001 4.258 1.013 8.377 2.825 11.622z"/><path fill="#161616" d="M172.453 69.814a4.537 4.537 0 0 1-3.404-1.538 35.145 35.145 0 0 1-4.896-7.2c-6.877-13.423-4.308-28.015 5.846-33.221 5.037-2.579 11.273-2.3 17.111.753 5.412 2.83 10.122 7.775 13.267 13.922 2.489 4.863 3.797 10.103 3.782 15.153a4.536 4.536 0 0 1-3.487 4.4c-5.926 1.407-12.283 3.217-18.889 5.378-2.554.836-5.285 1.571-8.353 2.247-.324.07-.652.106-.977.106zm5.011-34.659c-1.098 0-2.235.214-3.328.774-5.442 2.787-6.316 12.41-1.91 21.012a26.238 26.238 0 0 0 1.984 3.266 71.229 71.229 0 0 0 4.751-1.367 258.494 258.494 0 0 1 15.85-4.651c-.408-2.525-1.255-5.077-2.507-7.528-2.265-4.426-5.69-8.077-9.398-10.016-1.246-.653-3.272-1.49-5.442-1.49z"/><path fill="#161616" d="M180.337 55.468c4.524 2.273 4.488 3.438 2.941 6.759a256.313 256.313 0 0 1 9.986-2.942c.089-3.93-1.754-8.353-8.852-11.922-7.63-3.834-6.431-8.389-5.876-9.713a4.535 4.535 0 0 0-8.22-3.831c-2.203 4.637-2.947 15.129 10.021 21.649zM145.541 66.331c-.526.478-.874 1.062-1.122 1.68 3.635-.003 7.312-.115 10.98-.368 1.966-4.616 2.238-11.113-3.183-18.438-5.186-7.008-1.908-10.68-.762-11.65a4.535 4.535 0 0 0 .738-6.323 4.53 4.53 0 0 0-6.362-.793c-4.125 3.208-9.62 12.388-.91 24.161 5.175 6.996 1.427 11 .621 11.731zM110.926 65.399a10.842 10.842 0 0 0 3.157-1.924c3.091-2.708 4.736-7.113 5.176-13.864.206-3.193 1.078-5.452 2.587-6.713 1.881-1.569 4.461-1.337 4.603-1.318a4.536 4.536 0 0 0 1.238-8.987c-.662-.093-6.543-.806-11.498 3.214-3.588 2.91-5.602 7.357-5.982 13.216-.36 5.539-1.586 7.178-2.096 7.625-.963.841-3.313.682-5.808.509l-1.025-.068c-2.551-.139-4.653 1.745-4.81 4.245a4.527 4.527 0 0 0 .183 1.528c2.677.57 7.729 1.567 14.275 2.537zM135.057 225.251c-8.479 0-16.212-2.721-21.863-8.37-9.246-9.255-10.99-24.607-4.552-40.066a4.536 4.536 0 0 1 8.374 3.488c-4.999 12.003-4.005 23.561 2.592 30.165 10.58 10.574 31.963 6.415 47.66-9.283 7.807-7.804 12.983-17.222 14.578-26.518 1.497-8.721-.384-16.228-5.297-21.141-10.574-10.572-31.954-6.413-47.652 9.283-.224.226-.434.458-.644.689l-.533.58a4.537 4.537 0 0 1-6.606-6.219l.422-.459c.309-.34.617-.676.946-1.005 19.234-19.237 46.362-23.399 60.479-9.283 7.054 7.053 9.833 17.383 7.825 29.087-1.91 11.132-7.984 22.283-17.105 31.401-11.536 11.535-25.915 17.65-38.624 17.651z"/><path fill="#161616" d="M121.805 214.782c-.763 0-1.528-.009-2.299-.024a4.533 4.533 0 0 1-4.451-4.617c.044-2.504 2.083-4.593 4.617-4.451 12.918.23 23.105.421 25.915-25.429 3.617-33.255 31.576-30.816 31.875-30.794a4.536 4.536 0 0 1 4.057 4.968 4.534 4.534 0 0 1-4.943 4.06c-1.996-.179-19.391-.991-21.971 22.746-3.267 30.02-17.176 33.541-32.8 33.541z"/><path fill="#161616" d="M145.643 276.173c-13.571 0-68.615-2.237-87.914-37.619-14.637-26.834-4.648-65.471 29.688-114.833 5.908-8.494 5.908-8.494-2.222-17.259-2.615-2.818-5.87-6.328-9.635-10.965-10.156-12.505-12.89-26.926-6.652-35.065 2.458-3.207 9.983-9.805 27.038-2.365 4.73 1.064 51.42 11.107 83.022.772 20.395-6.667 56.229-15.816 67.009-2.17 2.982 3.772 5.111 10.596-1.674 21.68-5.194 8.486-12.543 13.96-19.027 18.79-11.465 8.536-18.384 13.689-10.317 30.314 1.202 2.479 2.749 5.429 4.494 8.758 14.77 28.196 45.502 86.866 1.574 119.174a4.536 4.536 0 0 1-5.375-7.308c37.653-27.691 10.403-79.71-4.237-107.656-1.792-3.424-3.381-6.458-4.618-9.007-11.341-23.378 1.621-33.032 13.06-41.549 6.109-4.55 12.428-9.257 16.709-16.25 1.831-2.993 4.568-8.445 2.294-11.319-3.148-3.982-18.714-7.377-57.076 5.167-35.597 11.64-86.184-.149-88.32-.657a4.507 4.507 0 0 1-.797-.27c-7.936-3.536-14.128-3.756-16.56-.587-3.069 4.004-1.478 14.012 6.494 23.83 3.576 4.405 6.719 7.792 9.243 10.515 9.316 10.042 12.71 14.674 3.018 28.606-32.204 46.297-42.022 81.723-29.18 105.293 18.89 34.674 81.821 32.898 82.452 32.88 19.966-1.329 36.859-4.6 50.063-9.716a4.537 4.537 0 0 1 3.277 8.459c-14.064 5.448-31.857 8.917-52.88 10.314-.313.012-1.341.043-2.951.043z"/></g></svg>