<svg xmlns="http://www.w3.org/2000/svg" viewBox="0 0 300 300" xml:space="preserve"><path fill="#F4F4F4" d="M1910.736 1037.349h89.125c19.801-14.003 32.763-37.034 32.763-63.129v-61.765h-154.652v61.765c.001 26.095 12.966 49.126 32.764 63.129z"/><path fill="#F9F9F9" d="M1897.121 974.22v-61.765h-19.148v61.765c0 26.095 12.965 49.126 32.763 63.129h19.148c-19.797-14.003-32.763-37.034-32.763-63.129z"/><path fill="#F4F4F4" d="M1893.717 1065.75h156.061c15.685 0 28.399-12.713 28.399-28.401h-212.865c0 15.688 12.714 28.401 28.405 28.401z"/><path fill="#F9F9F9" d="M1886.651 1037.349h-21.339c0 15.688 12.714 28.401 28.405 28.401h21.339c-15.691 0-28.405-12.713-28.405-28.401z"/><path fill="#F4F4F4" d="M2052.963 924.359h-20.339v12.094h20.339a6.48 6.48 0 0 1 6.469 6.233l-6.014 62.241a6.264 6.264 0 0 0-.027.582 6.484 6.484 0 0 1-6.475 6.478h-24.198a77.51 77.51 0 0 1-8.416 12.094h32.613c10.134 0 18.396-8.16 18.567-18.254l6.021-62.314c.021-.193.03-.387.03-.582 0-10.241-8.33-18.572-18.57-18.572z"/><path fill="#AA6148" d="M1980.356 998.753c-17.492 17.492-41.704 21.646-54.073 9.28-12.357-12.369-8.211-36.578 9.289-54.07 17.495-17.495 41.695-21.649 54.067-9.283 12.366 12.368 8.221 36.578-9.283 54.073z"/><path fill="#BC715C" d="M1943.512 961.9c15.573-15.578 36.448-20.542 49.57-12.726-.963-1.618-2.085-3.138-3.443-4.494-12.366-12.366-36.573-8.211-54.064 9.283-17.504 17.492-21.65 41.701-9.289 54.07 1.358 1.359 2.876 2.481 4.494 3.443-7.814-13.128-2.853-34.004 12.732-49.576z"/><path fill="#BC715C" d="M1931.518 1009.143c-.762 0-1.527-.009-2.297-.024a4.537 4.537 0 0 1-4.453-4.618 4.54 4.54 0 0 1 4.618-4.45c12.915.23 23.105.419 25.913-25.429 3.614-33.248 31.591-30.823 31.875-30.794a4.538 4.538 0 0 1 4.06 4.966c-.251 2.486-2.474 4.326-4.943 4.06-2.002-.165-19.394-.986-21.974 22.748-3.263 30.019-17.174 33.541-32.799 33.541z"/><g><path fill="#F4F4F4" d="M1955.299 905.394a4.535 4.535 0 0 1-4.535-4.535v-6.825c0-5.185-4.219-9.404-9.407-9.404h-17.138c-10.19 0-18.478-8.288-18.478-18.477v-4.007c0-10.188 8.288-18.477 18.478-18.477h58.334c5.188 0 9.407-4.219 9.407-9.405v-6.091a4.535 4.535 0 0 1 9.07 0v6.091c0 10.187-8.288 18.475-18.478 18.475h-58.334c-5.188 0-9.407 4.219-9.407 9.406v4.007c0 5.187 4.219 9.406 9.407 9.406h17.138c10.19 0 18.478 8.288 18.478 18.475v6.825a4.535 4.535 0 0 1-4.535 4.536z"/></g><g><path fill="#F9F9F9" d="M1998.007 834.264v-6.091a4.51 4.51 0 0 1 1.512-3.359 4.503 4.503 0 0 0-3.024-1.177 4.535 4.535 0 0 0-4.535 4.535v6.091c0 5.185-4.219 9.405-9.407 9.405h6.047c5.188 0 9.407-4.219 9.407-9.404zM1956.811 900.858v-6.825c0-5.185-4.219-9.404-9.407-9.404h-6.047c5.188 0 9.407 4.219 9.407 9.404v6.825a4.535 4.535 0 0 0 4.535 4.535c1.166 0 2.22-.453 3.024-1.177a4.504 4.504 0 0 1-1.512-3.358zM1911.788 866.152v-4.007c0-10.188 8.288-18.477 18.478-18.477h-6.047c-10.19 0-18.478 8.288-18.478 18.477v4.007c0 10.189 8.288 18.477 18.478 18.477h6.047c-10.19-.001-18.478-8.289-18.478-18.477z"/></g><g><path fill="#161616" d="M1999.861 1041.885h-89.125a4.53 4.53 0 0 1-2.619-.833c-21.714-15.36-34.68-40.343-34.68-66.832v-15.564a4.535 4.535 0 0 1 9.07 0v15.564c0 23.076 11.073 44.873 29.693 58.594h86.196c18.62-13.72 29.693-35.515 29.693-58.594v-57.23h-145.581v20.743a4.535 4.535 0 0 1-9.07 0v-25.278a4.535 4.535 0 0 1 4.535-4.535h154.652a4.535 4.535 0 0 1 4.535 4.535v61.765c0 26.49-12.965 51.475-34.68 66.832a4.527 4.527 0 0 1-2.619.833z"/><path fill="#161616" d="M2049.777 1070.286H1944.95a4.535 4.535 0 0 1 0-9.07h104.828c11.607 0 21.307-8.331 23.433-19.33h-202.932c2.126 10.999 11.829 19.33 23.439 19.33h30.31a4.535 4.535 0 0 1 0 9.07h-30.31c-18.162 0-32.941-14.776-32.941-32.936a4.535 4.535 0 0 1 4.535-4.535h212.865a4.535 4.535 0 0 1 4.535 4.535c0 18.16-14.775 32.936-32.935 32.936zM2046.916 1028.617h-32.613a4.539 4.539 0 0 1-4.116-2.629 4.539 4.539 0 0 1 .655-4.839 73.019 73.019 0 0 0 7.925-11.387 4.533 4.533 0 0 1 3.951-2.309h24.198c1.069 0 1.94-.871 1.94-1.943 0-.334.015-.664.044-.995l5.979-61.873a1.954 1.954 0 0 0-1.916-1.652h-20.339a4.535 4.535 0 0 1-4.535-4.535v-12.094a4.535 4.535 0 0 1 4.535-4.535h20.339c12.741 0 23.105 10.366 23.105 23.108 0 .356-.018.71-.056 1.063l-6 62.1c-.313 12.435-10.632 22.52-23.096 22.52zm-23.524-9.071h23.524c7.609 0 13.904-6.189 14.031-13.795.003-.12.009-.241.021-.359l6.021-62.314c.009-7.887-6.286-14.183-14.025-14.183h-15.803v3.024h15.803c5.95 0 10.783 4.656 11.002 10.602.006.201 0 .403-.018.602l-6.015 62.24c-.006 6.218-4.946 11.16-11.017 11.16h-21.596a83.031 83.031 0 0 1-1.928 3.023zM1955.299 905.393a4.535 4.535 0 0 1-4.535-4.535v-6.825c0-5.185-4.219-9.404-9.407-9.404h-17.138c-10.19 0-18.478-8.288-18.478-18.477v-4.007c0-10.188 8.288-18.477 18.478-18.477h58.334c5.188 0 9.407-4.219 9.407-9.404v-6.091a4.535 4.535 0 0 1 9.07 0v6.091c0 10.187-8.288 18.475-18.478 18.475h-58.334c-5.188 0-9.407 4.219-9.407 9.406v4.007c0 5.187 4.219 9.406 9.407 9.406h17.138c10.19 0 18.478 8.288 18.478 18.475v6.825a4.535 4.535 0 0 1-4.535 4.535zM1944.944 1019.512c-8.48 0-16.213-2.721-21.865-8.37-14.117-14.129-9.948-41.263 9.289-60.488 9.115-9.117 20.265-15.19 31.393-17.101 11.699-2.009 22.03.765 29.084 7.819 7.054 7.053 9.833 17.383 7.825 29.087-1.907 11.13-7.981 22.281-17.102 31.399-11.533 11.537-25.916 17.654-38.624 17.654zm26.019-77.521c-1.819 0-3.712.167-5.666.502-9.295 1.596-18.711 6.772-26.515 14.576-15.703 15.691-19.869 37.071-9.286 47.66 10.577 10.574 31.96 6.415 47.66-9.283 7.804-7.804 12.98-17.222 14.578-26.518 1.494-8.721-.387-16.228-5.3-21.141-3.811-3.81-9.182-5.796-15.471-5.796z"/><path fill="#161616" d="M1931.473 1009.043c-.765 0-1.53-.009-2.3-.024a4.538 4.538 0 0 1-4.453-4.617c.05-2.505 2.153-4.574 4.618-4.451 12.933.233 23.105.422 25.916-25.429 3.617-33.255 31.582-30.815 31.875-30.794a4.536 4.536 0 0 1 4.057 4.968 4.531 4.531 0 0 1-4.943 4.06c-2.002-.176-19.391-.989-21.971 22.746-3.266 30.02-17.176 33.541-32.799 33.541z"/></g><g><path fill="#F4F4F4" d="M88.992 240.388h89.125c19.801-14.003 32.763-37.035 32.763-63.129v-61.765H56.229v61.765c0 26.095 12.965 49.126 32.763 63.129z"/><path fill="#F9F9F9" d="M75.377 177.259v-61.765H56.229v61.765c0 26.095 12.965 49.126 32.763 63.129h19.148c-19.797-14.003-32.763-37.034-32.763-63.129z"/><path fill="#F4F4F4" d="M71.973 268.789h156.061c15.685 0 28.399-12.713 28.399-28.401H43.568c0 15.688 12.714 28.401 28.405 28.401z"/><path fill="#F9F9F9" d="M64.907 240.388H43.568c0 15.688 12.715 28.401 28.405 28.401h21.339c-15.691 0-28.405-12.713-28.405-28.401z"/><path fill="#F4F4F4" d="M231.219 127.398h-20.338v12.094h20.338a6.48 6.48 0 0 1 6.469 6.233l-6.015 62.241a6.264 6.264 0 0 0-.027.582 6.484 6.484 0 0 1-6.475 6.478h-24.197a77.572 77.572 0 0 1-8.415 12.094h32.613c10.134 0 18.396-8.16 18.567-18.254l6.021-62.314c.021-.193.03-.387.03-.582-.001-10.241-8.331-18.572-18.571-18.572z"/><path fill="#AA6148" d="M158.612 201.792c-17.492 17.492-41.704 21.646-54.073 9.28-12.357-12.369-8.212-36.578 9.289-54.07 17.495-17.495 41.695-21.649 54.067-9.283 12.366 12.368 8.22 36.578-9.283 54.073z"/><path fill="#BC715C" d="M121.768 164.938c15.573-15.578 36.448-20.542 49.57-12.726-.963-1.618-2.085-3.138-3.443-4.494-12.366-12.366-36.572-8.212-54.064 9.283-17.504 17.492-21.65 41.701-9.289 54.07 1.358 1.358 2.876 2.481 4.494 3.443-7.814-13.127-2.853-34.003 12.732-49.576z"/><path fill="#BC715C" d="M109.774 212.182c-.762 0-1.527-.009-2.297-.024a4.537 4.537 0 0 1-4.453-4.618 4.539 4.539 0 0 1 4.618-4.45c12.915.23 23.105.419 25.913-25.429 3.614-33.248 31.591-30.823 31.875-30.794a4.538 4.538 0 0 1 4.06 4.966c-.251 2.486-2.475 4.326-4.943 4.06-2.002-.165-19.394-.986-21.974 22.748-3.263 30.019-17.174 33.541-32.799 33.541z"/><g><path fill="#F4F4F4" d="M133.555 108.432a4.535 4.535 0 0 1-4.535-4.535v-6.825c0-5.185-4.219-9.404-9.407-9.404h-17.138c-10.19 0-18.478-8.288-18.478-18.477v-4.007c0-10.188 8.288-18.477 18.478-18.477h58.334c5.188 0 9.407-4.219 9.407-9.405v-6.091a4.536 4.536 0 0 1 9.07 0v6.091c0 10.187-8.288 18.475-18.478 18.475h-58.334c-5.188 0-9.407 4.219-9.407 9.406v4.007c0 5.187 4.219 9.406 9.407 9.406h17.138c10.19 0 18.478 8.288 18.478 18.475v6.825a4.535 4.535 0 0 1-4.535 4.536z"/></g><g><path fill="#F9F9F9" d="M176.263 37.302v-6.091a4.51 4.51 0 0 1 1.512-3.359 4.5 4.5 0 0 0-3.024-1.177 4.535 4.535 0 0 0-4.535 4.535v6.091c0 5.185-4.219 9.405-9.407 9.405h6.047c5.188.001 9.407-4.218 9.407-9.404zM135.067 103.897v-6.825c0-5.185-4.219-9.404-9.407-9.404h-6.047c5.188 0 9.407 4.219 9.407 9.404v6.825a4.536 4.536 0 0 0 4.535 4.535 4.508 4.508 0 0 0 3.024-1.177 4.507 4.507 0 0 1-1.512-3.358zM90.044 69.19v-4.007c0-10.188 8.288-18.477 18.478-18.477h-6.047c-10.19 0-18.478 8.288-18.478 18.477v4.007c0 10.189 8.288 18.477 18.478 18.477h6.047c-10.19 0-18.478-8.288-18.478-18.477z"/></g><g><path fill="#161616" d="M178.117 244.924H88.992a4.53 4.53 0 0 1-2.619-.833c-21.714-15.36-34.68-40.343-34.68-66.832v-15.564a4.535 4.535 0 0 1 9.07 0v15.564c0 23.076 11.073 44.873 29.693 58.594h86.196c18.62-13.72 29.693-35.515 29.693-58.594v-57.23H60.764v20.743a4.535 4.535 0 0 1-9.07 0v-25.278a4.535 4.535 0 0 1 4.535-4.535h154.652a4.535 4.535 0 0 1 4.535 4.535v61.765c0 26.49-12.965 51.475-34.68 66.832a4.527 4.527 0 0 1-2.619.833z"/><path fill="#161616" d="M228.033 273.324H123.205a4.535 4.535 0 0 1 0-9.07h104.828c11.607 0 21.307-8.331 23.433-19.33H48.534c2.126 10.999 11.829 19.33 23.439 19.33h30.31a4.535 4.535 0 0 1 0 9.07h-30.31c-18.162 0-32.941-14.775-32.941-32.936a4.535 4.535 0 0 1 4.535-4.535h212.865a4.535 4.535 0 0 1 4.535 4.535c.001 18.161-14.774 32.936-32.934 32.936zM225.172 231.655h-32.613a4.537 4.537 0 0 1-3.46-7.468 72.951 72.951 0 0 0 7.925-11.387 4.533 4.533 0 0 1 3.951-2.309h24.198c1.069 0 1.94-.871 1.94-1.943 0-.334.015-.664.044-.995l5.979-61.873a1.954 1.954 0 0 0-1.916-1.652h-20.338a4.535 4.535 0 0 1-4.535-4.535v-12.094a4.536 4.536 0 0 1 4.535-4.535h20.338c12.741 0 23.105 10.366 23.105 23.108 0 .356-.018.71-.056 1.063l-6 62.1c-.314 12.435-10.634 22.52-23.097 22.52zm-23.524-9.07h23.524c7.609 0 13.904-6.189 14.031-13.795.003-.12.009-.241.021-.359l6.021-62.314c.009-7.887-6.286-14.184-14.026-14.184h-15.803v3.024h15.803c5.95 0 10.783 4.657 11.002 10.602.006.201 0 .403-.018.602l-6.015 62.24c-.006 6.218-4.946 11.16-11.017 11.16h-21.596a80.882 80.882 0 0 1-1.927 3.024zM133.555 108.432a4.535 4.535 0 0 1-4.535-4.535v-6.825c0-5.185-4.219-9.405-9.407-9.405h-17.138c-10.19 0-18.478-8.288-18.478-18.477v-4.007c0-10.188 8.288-18.477 18.478-18.477h58.334c5.188 0 9.407-4.219 9.407-9.404V31.21a4.535 4.535 0 0 1 9.07 0v6.092c0 10.187-8.288 18.475-18.478 18.475h-58.334c-5.188 0-9.407 4.219-9.407 9.406v4.007c0 5.187 4.219 9.406 9.407 9.406h17.138c10.19 0 18.478 8.288 18.478 18.475v6.825a4.535 4.535 0 0 1-4.535 4.536zM123.2 222.551c-8.48 0-16.213-2.721-21.865-8.37-14.117-14.129-9.948-41.263 9.289-60.488 9.115-9.117 20.265-15.19 31.393-17.101 11.699-2.009 22.03.765 29.084 7.819 7.054 7.053 9.833 17.383 7.825 29.087-1.907 11.13-7.981 22.281-17.102 31.399-11.533 11.537-25.916 17.654-38.624 17.654zm26.019-77.521c-1.819 0-3.711.167-5.666.502-9.295 1.596-18.711 6.772-26.515 14.576-15.703 15.691-19.869 37.072-9.286 47.66 10.577 10.574 31.96 6.415 47.66-9.283 7.804-7.804 12.98-17.222 14.578-26.518 1.494-8.721-.387-16.228-5.3-21.141-3.811-3.81-9.182-5.796-15.471-5.796z"/><path fill="#161616" d="M109.729 212.082c-.765 0-1.53-.009-2.3-.024a4.538 4.538 0 0 1-4.453-4.617c.05-2.505 2.152-4.574 4.618-4.451 12.933.233 23.105.422 25.916-25.429 3.617-33.255 31.582-30.815 31.875-30.794a4.536 4.536 0 0 1 4.057 4.968 4.531 4.531 0 0 1-4.943 4.06c-2.002-.176-19.391-.989-21.971 22.746-3.266 30.02-17.176 33.541-32.799 33.541z"/></g></g></svg>